<?xml version="1.0" encoding="UTF-8"?>
<svg width="36px" height="36px" viewBox="0 0 36 36" version="1.1" xmlns="http://www.w3.org/2000/svg" xmlns:xlink="http://www.w3.org/1999/xlink">
    <!-- Generator: Sketch 46 (44423) - http://www.bohemiancoding.com/sketch -->
    <title>down-arrow</title>
    <desc>Created with Sketch.</desc>
    <defs></defs>
    <g id="Page-1" stroke="none" stroke-width="1" fill="none" fill-rule="evenodd">
        <g id="Artboard-2" transform="translate(-9.000000, -53.000000)" fill="#009934">
            <g id="down-arrow" transform="translate(9.000000, 53.000000)">
                <g id="Group-3" transform="translate(0.000000, 0.089086)">
                    <path d="M35.0392672,17.5357462 C35.0392672,7.90017259 27.1797252,0.0605786802 17.5196336,0.0605786802 C7.85954198,0.0605786802 2.18847163e-12,7.90017259 2.18847163e-12,17.5357462 C2.18847163e-12,27.1713198 7.85954198,35.0109137 17.5196336,35.0109137 C27.1797252,35.0109137 35.0392672,27.1713198 35.0392672,17.5357462 L35.0392672,17.5357462 Z M1.75071298,17.5357462 C1.75071298,8.86239365 8.82421145,1.80684822 17.5196336,1.80684822 C26.215145,1.80684822 33.2886435,8.86239365 33.2886435,17.5357462 C33.2886435,26.2091878 26.215145,33.2647332 17.5196336,33.2647332 C8.82421145,33.2647332 1.75071298,26.2091878 1.75071298,17.5357462 L1.75071298,17.5357462 Z" id="Fill-1"></path>
                    <path d="M18.1413412,25.7459391 L23.0640046,20.8354135 C23.4069664,20.4933221 23.4069664,19.9445505 23.0640046,19.6024591 C22.7210427,19.2604569 22.1708748,19.2604569 21.827913,19.6024591 L18.3984733,23.0236401 L18.3984733,9.94568299 C18.3984733,9.46096447 18.0056748,9.06907386 17.5196336,9.06907386 C17.0336817,9.06907386 16.6407939,9.46096447 16.6407939,9.94568299 L16.6407939,23.016335 L13.2113542,19.5955104 C12.8680351,19.253419 12.3182244,19.253419 11.9749053,19.5955104 C11.6319435,19.9376018 11.6319435,20.4863734 11.9749053,20.8284647 L16.897926,25.738634 C17.0695855,25.9098579 17.291171,25.9954698 17.5196336,25.9954698 C17.7481855,25.9954698 17.9696817,25.9168066 18.1413412,25.7459391 L18.1413412,25.7459391 Z" id="Fill-4"></path>
                </g>
            </g>
        </g>
    </g>
</svg>