<?xml version="1.0" encoding="UTF-8"?>
<svg width="36px" height="36px" viewBox="0 0 36 36" version="1.1" xmlns="http://www.w3.org/2000/svg" xmlns:xlink="http://www.w3.org/1999/xlink">
    <!-- Generator: Sketch 46 (44423) - http://www.bohemiancoding.com/sketch -->
    <title>up-arrow</title>
    <desc>Created with Sketch.</desc>
    <defs></defs>
    <g id="Page-1" stroke="none" stroke-width="1" fill="none" fill-rule="evenodd">
        <g id="Artboard-2" transform="translate(-55.000000, -52.000000)" fill="#DC3516">
            <g id="up-arrow" transform="translate(73.000000, 69.500000) rotate(180.000000) translate(-73.000000, -69.500000) translate(55.000000, 51.000000)">
                <g id="Group-3" transform="translate(0.000000, 0.089086)">
                    <path d="M35.0392672,17.5357462 C35.0392672,7.90017259 27.1797252,0.0605786802 17.5196336,0.0605786802 C7.85954198,0.0605786802 2.18847163e-12,7.90017259 2.18847163e-12,17.5357462 C2.18847163e-12,27.1713198 7.85954198,35.0109137 17.5196336,35.0109137 C27.1797252,35.0109137 35.0392672,27.1713198 35.0392672,17.5357462 L35.0392672,17.5357462 Z M1.75071298,17.5357462 C1.75071298,8.86239365 8.82421145,1.80684822 17.5196336,1.80684822 C26.215145,1.80684822 33.2886435,8.86239365 33.2886435,17.5357462 C33.2886435,26.2091878 26.215145,33.2647332 17.5196336,33.2647332 C8.82421145,33.2647332 1.75071298,26.2091878 1.75071298,17.5357462 L1.75071298,17.5357462 Z" id="Fill-1"></path>
                </g>
                <path d="M18.1413412,25.8350254 L23.0640046,20.9244997 C23.4069664,20.5824084 23.4069664,20.0336368 23.0640046,19.6915454 C22.7210427,19.3495431 22.1708748,19.3495431 21.827913,19.6915454 L18.3984733,23.1127264 L18.3984733,10.0347693 C18.3984733,9.55005076 18.0056748,9.15816015 17.5196336,9.15816015 C17.0336817,9.15816015 16.6407939,9.55005076 16.6407939,10.0347693 L16.6407939,23.1054213 L13.2113542,19.6845967 C12.8680351,19.3425053 12.3182244,19.3425053 11.9749053,19.6845967 C11.6319435,20.0266881 11.6319435,20.5754596 11.9749053,20.917551 L16.897926,25.8277203 C17.0695855,25.9989442 17.291171,26.0845561 17.5196336,26.0845561 C17.7481855,26.0845561 17.9696817,26.0058929 18.1413412,25.8350254 L18.1413412,25.8350254 Z" id="Fill-4"></path>
            </g>
        </g>
    </g>
</svg>